<svg version="1" xmlns="http://www.w3.org/2000/svg" width="346.667" height="346.667" viewBox="0 0 260.000000 260.000000"><path d="M57.3 43.8c-3.6.4-4 .9-1.9 2.6 1.2 1 0 6.6-7.4 33.2 0 .1 5-.3 6.1-.5.3-.1 1.1-2.3 1.8-5 1.9-7.5 8.8-16.8 10.8-14.7.4.3-.4 3.9-1.6 8.1-2.8 9.3-2.6 11.9 1.1 12.3 2.1.3 3.5-.5 5.8-2.9 1.6-1.8 2.7-3.5 2.5-3.8-.3-.2-1.5.6-2.7 1.9-3.1 3.3-3.4 1.2-.8-6.5 2.9-8.6 2.5-11.9-1.5-12.3-2.5-.2-3.9.5-7.4 4-3.4 3.4-4 3.8-3.2 1.8.6-1.4 1.8-5.4 2.6-9 .9-3.6 1.8-7.2 2.1-8 .4-1.6-.3-1.8-6.3-1.2zM23.4 44.8c-2.6.3-3.3.8-3.8 3.4-1.1 5.6-.7 5.9 2.9 2.3 3.9-3.8 9.1-5 8.1-1.8-.2 1-1.9 7-3.6 13.3-3.9 14.8-4.5 16-7.1 16-1.2 0-1.9.3-1.6.6 1 1 13.9 1.2 16.2.3 1.9-.7 1.9-.8-.2-.8-1.2-.1-2.4-.5-2.8-1-.4-.8 7-29.9 7.8-30.8.2-.1 1.4.4 2.7 1 1.4.7 3 2.8 3.6 4.6 1.3 3.9 2 3.2 3-2.7.6-3.7.4-4.2-1.2-4.3-6.8-.3-21.4-.3-24-.1zM122.2 54.9c-2.9 1-6.6 3.1-8.3 4.7l-3 2.8 5.8 5.3c8.3 7.6 18 12.2 19.8 9.4.3-.5-2-3.7-5.1-7.1-3.1-3.3-5.5-6.2-5.3-6.3.2-.2 2.8-2.3 5.7-4.6 3.9-3.2 5-4.6 4-5.2-2.1-1.4-7.9-1-13.6 1zM149.7 56.4c-5 1.8-10.6 5.7-11.3 7.8-.8 2.7 1.1 5.3 7 9.2 3.4 2.2 7.2 3.9 10.2 4.3 4.6.6 4.6.6 3.4-1.7-.7-1.3-3-4-5.3-6l-4-3.7 4.6-4.5c2.6-2.5 4.7-5 4.7-5.6 0-1.6-4.6-1.4-9.3.2zM175.5 55.7c-3.2.7-11.5 6.6-12.1 8.6C161.6 70 176 79.5 182.6 77c1.3-.5 2.4-1.2 2.4-1.4 0-.3-2.7-2.6-6-5.2l-6.1-4.7 3-3.1c4.7-4.9 4.5-8-.4-6.9zM84.5 59.1C79.9 63.2 78 66.9 78 72c0 8 8.2 11 14.1 5.1 1.6-1.6 2.9-3.4 2.9-4 0-1.6-.7-1.4-3.4 1.4-3.9 3.9-6.6 3.1-7.3-2.1-.3-1.8.3-2.3 3.2-2.8 4.4-.9 10.5-6.1 10.5-9 0-5.6-7.8-6.4-13.5-1.5zm8-1c1.7 2.6-2.9 9.9-6.1 9.9-1 0-1.1-.7-.2-3.3 2.2-6.3 4.8-9.1 6.3-6.6zM193.5 56.7c-2.5.7-10.5 6.1-10.5 7.2 0 1.8 8.4 9.4 12.3 11.2 5 2.2 9.7 2.5 9.7.5 0-.8-2.3-3.5-5.1-6l-5-4.5 2.5-3.8c1.4-2.1 2.6-4.1 2.6-4.5 0-.9-3.3-.9-6.5-.1zM214.5 59c-2.5 1-6.5 4.8-6.5 6.1 0 3.1 14.7 11.9 20 11.9 2.3 0 2.2-.3-2-4.5-2.4-2.5-5.2-4.8-6.2-5.1-1.7-.5-1.6-.8.6-3.7 4.1-5.6 4.1-5.7-.1-5.6-2.1 0-4.7.4-5.8.9zM231.6 65.4c-4.7 3.5 6.2 5.4 13.5 2.3l3.4-1.4-3.5-.7c-6.8-1.3-11.9-1.4-13.4-.2zM153.6 85.8c-.3.2-5.8.9-9.3 1.1-2.1.2-1.5 2.1.6 2.1 2.8 0 3 1.7.9 9.5-2.2 8-2.4 8.3-4 6.7-2-2-7.3-1.3-11.6 1.5-13.1 8.9-19.1 28.4-10.3 33.6 5.3 3.1 11.2 1.3 15-4.5l2.1-3.3v3.2c0 4.2 2.5 6.6 5.9 5.8 2.5-.5 10.1-7.8 10.1-9.6 0-1.8-2-.9-3.6 1.6-2.1 3.2-4.4 3.3-3.7.2.7-2.9 12-44.1 12.8-46.6.5-1.5.1-1.9-2-1.7-1.5 0-2.8.2-2.9.4zm-12 23.7c2.1 8.4-7.9 28.8-13.1 26.8-3.8-1.4-3.1-8.5 1.9-19 4.6-9.5 9.8-13.2 11.2-7.8zM22.3 87.1c-4.1 1.2-9 7.2-9.8 11.9-1 6 2.1 11.3 11.1 19 9.2 7.9 10.6 13 5 18.6-2.9 2.9-4 3.4-7 3.1-7.6-.9-11.7-5.7-12.5-15-.1-.4-.5-.7-1-.7-.9 0-1.6 2.2-2.6 9-.3 1.9-.8 4.7-1.1 6.2-.6 3.1.8 3.7 3.2 1.4 1.3-1.3 2-1.3 5.6 0 4 1.4 8.4 1.9 13.8 1.6 4-.3 10.8-5.2 12.7-9.2 2.3-4.8 2-11.1-.7-15.5-1.2-2-5-5.9-8.4-8.7-7.7-6.5-8.5-7.6-8.6-11.6 0-4 3.8-8.2 7.5-8.2C35.1 89 40 93.7 40 99c0 1.8 1.7 3.7 2.5 2.8.8-.8 3.3-14.2 2.9-15-.3-.5-1.4-.2-2.6.6-1.5 1.1-2.8 1.2-5.1.5-5-1.5-11.9-1.9-15.4-.8zM63.7 97.9c-2.7 2.7-6.1 5.5-7.8 6.1-1.7.8-2.9 2-2.9 3.1s.3 1.8.8 1.8c2.7-.5 2.7.9-.4 11.8-4.1 14.2-4.4 18.1-1.9 19.9 2.6 1.9 5.2 1.7 8.9-.5 3.2-2 7.6-7.2 7.6-9.1 0-1.7-1-1.2-3.7 2-2.2 2.7-5.3 4-5.3 2.3 0-1.4 6.2-23.9 7-25.3.5-.8 1.8-1.6 2.9-1.6 3.8-.3 4.1-.4 4.1-1.9 0-1-1-1.5-2.9-1.5h-2.9l1.4-5.2c.7-2.9 1-5.6.6-6-.4-.4-2.9 1.4-5.5 4.1zM250.7 97.9c-2.6 2.7-6.1 5.4-7.7 6.1-1.8.8-3 2-3 3.1s.3 1.8.8 1.8c2.7-.5 2.7.9-.4 11.8-4.1 14.2-4.4 18.1-1.9 19.9 4 3 9.6.7 14-5.5 3.4-5 2.6-6.6-1-2.2-3.6 4.2-5.7 4.1-4.8-.2 1-4.9 6.2-22.9 6.8-23.6.3-.3 1.8-.5 3.3-.6 1.7 0 2.8-.6 3-1.8.3-1.3-.3-1.7-2.7-1.7h-3l1.4-4.8c2.7-8.8 1.9-9.2-4.8-2.3zM82.3 105.3c-6.7.9-7.6 1.6-4 3.2 2.6 1.2 2.6 2.4-.9 14.7-3.1 10.7-3.3 14.2-.9 16.8 4.1 4.6 10.3 1.5 18.1-8.9.9-1.1 1-.3.7 3.6-.5 4.5-.3 5.2 1.6 6.3 1.2.6 3.5.9 5 .5 2.9-.6 8.4-5.4 10.2-8.7 1.5-2.8-.8-2.2-3.6.9-4.6 5.4-4.7 1.8-.5-13.7 2.2-8 4-14.6 4-14.8 0-.2-2.1-.2-4.6 0l-4.6.3-2.3 7c-3.8 11.8-8.6 20.4-12.6 22.6-4 2.1-4.3-.3-1.4-10.3 1.5-5.1 2.8-10 3-10.8.2-.8.8-2.8 1.4-4.3.6-1.6 1.1-3.4 1.1-4.2 0-1.5-.3-1.5-9.7-.2zM172 105.9c-14.5 7.7-20 28.9-9 34.6 6.2 3.2 13.2 1 18.4-5.8 1.4-1.8 2.6-3.7 2.6-4 0-1.6-2.5-.5-4.9 2.2-3.7 4.1-7.3 4.9-10.1 2.1-1.5-1.5-2-2.9-1.6-5.1.5-3.7.1-3.2 5.5-4.8 5.6-1.6 11.3-5.2 13.4-8.5 1.8-2.6 2.2-7.3.9-9.2-2.4-3.7-9.7-4.4-15.2-1.5zm9 4.5c0 2.4-3.5 8.5-5.9 10.3-.9.7-2.8 1.6-4.3 2.2-2.5.9-2.6.8-1.8-1.7 3-10.2 7.8-16.5 10.6-14.1.8.6 1.4 2.1 1.4 3.3zM203.3 105.3c-6.4.9-7.9 2-4.3 3.2 1.1.3 2 1 2 1.5s-1.8 7.4-4 15.4-4 14.8-4 15.1c0 .3 2 .5 4.5.5h4.4l2.2-7.3c3.3-11.1 9-21.1 13.5-23.5 4.2-2.2 4.3.4.7 11.5-4.2 12.9-4.2 18.3-.1 19.7 1.8.6 3.5.5 5.5-.3 3.6-1.5 9.7-9.3 8-10.3-.6-.4-1.8.5-2.9 2.3-1.6 2.6-4.8 4-4.8 2.1 0-.4 1.6-5.5 3.5-11.3 5.4-15.8 4.8-19.9-3-19.9-2.8 0-11.4 5.1-11.5 6.8-.1.4-1.2 2-2.5 3.7l-2.5 3 .9-3c.5-1.7 1.4-4.3 2-5.8 1.9-4.9 2.3-4.8-7.6-3.4zM28 155.9c0 .5 1.4 1.1 3 1.4 3.7.8 3.9 3.2.9 13.2-1.1 3.9-2.2 7.9-2.4 9-.3 1.1-2 7.2-3.8 13.5-2.6 9.1-3.7 11.7-5.5 12.6-4.5 2.3-2.5 2.9 9.1 2.9 8.8.1 11.7-.3 11.7-1.2 0-.7-1.1-1.3-2.4-1.3-3.8 0-3.9-2.7-.7-13.3 1.6-5.3 2.6-9.8 2.3-10.1-.3-.4.2-.6 1.1-.6 1.1 0 2.7 3.5 5.9 13.2l4.3 13.3 7.8.1c5.8 0 7.7-.3 7.7-1.3 0-.7-.9-1.3-2-1.3-2.3 0-3-1.2-6.8-11.6-4.8-13.2-4.8-13.1-.4-14.5 5.2-1.7 8.1-3.7 9.7-6.9 3.7-7.1 1.9-13-4.7-16-3.7-1.7-6.6-2-19.5-2-8.4 0-15.3.4-15.3.9zm27.4 4.3c3.4 4.8.5 15.2-4.9 17.6-2.9 1.3-8.5 1.6-8.5.4 0-1.3 4.7-18 5.4-19.1 1.3-2 6.4-1.3 8 1.1zM235.1 165.2c-1.9 2.1-5.2 4.8-7.3 5.9-4.1 2.1-5.1 4.9-1.7 4.9 1.3 0 1.9.5 1.6 1.3-1.5 3.9-6.7 25-6.7 27.1 0 3 3.3 5.6 6.4 5 3.8-.7 6.4-2.6 9.6-7 3.6-5.1 2.3-5.9-2-1.2s-5.3 2.4-2.9-6.1c1.1-3.6 2.7-9.4 3.5-12.9 1.6-6.1 1.7-6.2 5.1-6.2 2.7 0 3.4-.4 3.1-1.8-.2-1.1-1.2-1.7-2.7-1.6-2 .1-2.2-.2-1.7-2.7.3-1.6.9-4.3 1.2-5.9.9-4.2-1.3-3.8-5.5 1.2zM92.8 172.2c-8.6 2.2-17.8 14.5-17.8 23.9 0 6.6 1.7 9.9 6.4 11.9 6.5 3 13.1.8 18.1-6 3.6-4.9 1.5-6.2-2.8-1.6-5.4 5.7-11.6 4.4-11.7-2.5 0-3.3 1.2-4.2 7.2-5.9 9.3-2.5 15.9-11.2 12.9-16.8-1.7-3.2-6.6-4.4-12.3-3zm5.7 3.9c1.1 3.3-3.4 10.9-7.8 13.2-2.1 1.1-4 1.7-4.3 1.5-.2-.3.5-3 1.6-6.1 3.3-8.9 9-13.5 10.5-8.6zM134.4 172.5c-1.7.7-4 2.5-5.2 4-2.4 3-2.8 2.2-1.2-2l1-2.6-6.8.7c-7.2.7-8.2 1-8.2 2.5 0 .5.3.8.8.8 2.1-.4 3.2.3 3.2 2 0 1.1-2.3 10.2-5.1 20.3-2.8 10.1-5.4 19.4-5.8 20.8-.4 1.4-1.7 2.9-2.9 3.5-4.2 1.9-2.2 2.5 7.8 2.5 6 0 10-.4 10-1s-.9-1-2-1c-2.9 0-3.4-2.3-2-9 .7-3.3 1.3-6 1.4-6 .1 0 1.6.4 3.3.9 4.9 1.4 9.6-.4 14.7-5.6 8-8 11.7-19.4 8.8-26.7-1.8-4.7-6.5-6.3-11.8-4.1zm1.6 6c2.5 3.1-2.5 20-7.7 25.7-1.8 2.1-6.9 2.4-7.6.5-.5-1.5 2.8-13.7 5.4-19.7 1.9-4.4 5.3-7.9 7.5-8 .6 0 1.7.7 2.4 1.5zM168.8 171.9c-7.8 1.8-16.9 12.5-18.2 21.5-1.8 12.1 7.9 19.2 20 14.6 3.5-1.4 9.1-6.7 11.9-11.6 3.2-5.4 4.3-14.6 2.3-18.3-2.7-5-9.5-7.7-16-6.2zm7.1 4.3c.4 1.2.7 3.1.6 4.2-1 8.6-3.1 15.3-6.7 21.7-2.4 4.3-5.9 5.9-8.4 3.9-2.8-2.4-.7-16.9 3.9-25.7 3.1-5.9 9-8.3 10.6-4.1zM216.3 171.8c-2.4.4-7.3 5.7-9.7 10.6-2.2 4.3-2 2 .4-4.8l2-5.8-7.3.7c-7.7.8-8.7 1.1-8.7 2.6 0 .5.3.8.8.8 4.1-.7 4 1.3-.8 19.1-1.6 6-3.1 11.4-3.2 12.2-.2.9 1 1.3 4.4 1.3l4.6.1 1.7-6.3c2-7.4 7.5-19.2 9.8-21.1 1.3-1.1 2.1-1.1 4.5.2 2.6 1.3 3.1 1.3 5.1 0 1.4-1 2.1-2.6 2.1-4.9 0-3.8-1.9-5.4-5.7-4.7z"/></svg>