<?xml version="1.0" encoding="utf-8"?>
<!-- Generator: Adobe Illustrator 17.0.0, SVG Export Plug-In . SVG Version: 6.00 Build 0)  -->
<!DOCTYPE svg PUBLIC "-//W3C//DTD SVG 1.1//EN" "http://www.w3.org/Graphics/SVG/1.1/DTD/svg11.dtd">
<svg version="1.1" xmlns="http://www.w3.org/2000/svg" xmlns:xlink="http://www.w3.org/1999/xlink" x="0px" y="0px"
	 width="646.474px" height="141.531px" viewBox="0 0 646.474 141.531" enable-background="new 0 0 646.474 141.531"
	 xml:space="preserve">
<g id="Layer_1" display="none">
	<rect x="-767.671" y="-563.499" display="inline" width="2045.818" height="1321.818"/>
</g>
<g id="Layer_2">
	<g>
		<path fill="#FFFFFF" d="M0,54.36c2.434,0,4.105-0.232,5.011-0.695c1.45-0.747,2.537-2.408,3.263-4.981L19.969,5.96
			c-3.94-0.026-7.314,0.927-10.122,2.854c-2.808,1.929-5.139,4.772-6.994,8.527l-2.058-0.542L3.864,3.202h43.737l-2.873,15.266
			l-2.059-0.194c-0.13-5.179-1.585-8.714-4.363-10.605c-1.507-1.036-3.741-1.606-6.701-1.71L20.544,46.663l-0.66,2.745
			c-0.078,0.362-0.13,0.658-0.156,0.89c-0.026,0.232-0.038,0.464-0.038,0.696c0,1.367,0.428,2.224,1.282,2.572
			c0.854,0.348,2.641,0.613,5.361,0.793v2.058H0L0,54.36L0,54.36z"/>
		<path fill="#FFFFFF" d="M46.36,56.418l12.351-45.121c0.13-0.492,0.272-1.089,0.428-1.791c0.156-0.7,0.234-1.271,0.234-1.713
			c0-1.195-0.376-1.921-1.126-2.181c-0.752-0.26-2.033-0.364-3.845-0.312V3.202c3.826-0.388,6.431-0.681,7.81-0.873
			c1.379-0.194,4.283-0.693,8.712-1.496l-8.468,32.59l0.18,0.078c-0.258,0.258-0.125,0.026,0.405-0.7
			c0.528-0.724,1.322-1.774,2.38-3.145c2.373-3.107,4.623-5.529,6.751-7.264c2.129-1.734,4.418-2.603,6.869-2.603
			c1.857,0,3.334,0.518,4.434,1.554c1.1,1.036,1.649,2.589,1.649,4.661c0,0.856-0.092,1.696-0.272,2.525
			c-0.182,0.83-0.648,2.395-1.398,4.699l-5.314,16.47c-0.076,0.336-0.116,0.57-0.116,0.7c0,0.414,0.128,0.745,0.388,0.991
			c0.258,0.246,0.556,0.369,0.894,0.369c0.7,0,1.748-0.854,3.147-2.563c0.698-0.906,1.658-2.265,2.875-4.079l1.748,1.204
			c-2.382,3.651-4.263,6.164-5.645,7.536c-2.304,2.278-4.761,3.417-7.373,3.417c-1.434,0-2.685-0.421-3.753-1.263
			c-1.069-0.842-1.602-2.169-1.602-3.982c0-1.166,0.258-2.764,0.776-4.798c0.518-2.032,1.178-4.304,1.98-6.817l3.869-11.887
			c0.052-0.18,0.097-0.369,0.137-0.563c0.038-0.194,0.059-0.383,0.059-0.563c0-0.752-0.206-1.244-0.618-1.477
			c-0.412-0.232-0.838-0.35-1.277-0.35c-1.573,0-3.416,1.282-5.529,3.845c-2.113,2.563-3.802,5.037-5.064,7.42
			c-1.29,2.409-2.569,5.477-3.838,9.206c-0.7,2.149-1.749,5.607-3.149,10.371H46.36V56.418z"/>
		<path fill="#FFFFFF" d="M98.645,28.092c4.765-5.588,9.996-8.381,15.694-8.381c2.46,0,4.5,0.608,6.118,1.822
			c1.618,1.214,2.428,2.934,2.428,5.158c0,3.36-1.891,6.54-5.671,9.538c-3.781,2.998-8.69,4.912-14.722,5.738
			c-0.156,0.802-0.272,1.554-0.35,2.253c-0.078,0.7-0.116,1.268-0.116,1.71c0,1.632,0.234,2.913,0.7,3.845
			c0.828,1.735,2.421,2.602,4.777,2.602c1.916,0,3.821-0.984,5.711-2.953c1.01-1.036,2.097-2.472,3.263-4.311l2.331,1.36
			c-1.994,3.341-3.871,5.787-5.633,7.342c-2.797,2.485-6.073,3.729-9.828,3.729c-2.797,0-5.432-1.015-7.905-3.047
			c-2.473-2.03-3.71-5.129-3.71-9.294C91.73,39.203,94.034,33.497,98.645,28.092z M115.154,23.263
			c-0.338-0.632-0.946-0.949-1.826-0.949c-1.865,0-3.696,1.498-5.496,4.496c-1.801,2.996-3.398,7.195-4.798,12.595
			c4.583-1.032,7.832-3.022,9.75-5.967c1.916-2.946,2.875-5.568,2.875-7.869C115.658,24.664,115.489,23.895,115.154,23.263z"/>
	</g>
	<g>
		<path fill="#FFFFFF" d="M178.728,118.73c0,0,25.307-6.442,34.696-3.354c1.175,0.384,3.656,1.862,3.806,3.081
			c0.184,1.512-2.453,4.107-3.851,4.749C204.005,127.622,178.728,118.73,178.728,118.73"/>
		<path fill="#FFFFFF" d="M244.557,118.096c0,0-11.894-11.689-11.747-17.529c12.319-2.181,24.768,3.606,32.784,13.164
			c-0.661,11.294-31.411,26.399-46.44,27.8C228.024,127.147,244.557,118.096,244.557,118.096"/>
		<path fill="#FFFFFF" d="M259.58,139.586c8.059-14.158,24.168-24.09,24.168-24.09s-12.028-12.739-12.003-18.062
			c8.855-4.495,28.903,7.273,34.957,15.08C301.886,124.672,276.426,145.326,259.58,139.586"/>
		<path fill="#FFFFFF" d="M326.86,116.712c0,0-17.039-11.233-15.23-21.343c9.405-2.306,30.959,11.018,34.665,20.438
			c-3.408,13.628-32.864,34.37-46.29,22.643C305.017,130.934,326.86,116.712,326.86,116.712"/>
		<path fill="#FFFFFF" d="M364.404,117.381c0,0-19.879-11.78-22.205-21.582c13.697-5.434,38.686,8.494,45.636,20.106
			c-5.456,12.11-30.987,30.031-47.403,25.924C343.236,132.513,364.404,117.381,364.404,117.381"/>
		<path fill="#FFFFFF" d="M405.52,113.076c0,0-21.123-15.85-24.663-19.673c9.504-10.229,47.143,2.99,53.936,16.323
			c-12.522,13.102-38.299,36.359-53.037,32.403C378.615,136.324,405.52,113.076,405.52,113.076"/>
	</g>
	<g>
		<path fill="#FFFFFF" d="M141.127,58.735l2.959-18.352l2.36,0.159c0.16,2.613,0.385,4.518,0.68,5.718
			c0.506,1.999,1.426,3.773,2.759,5.318c1.226,1.413,2.62,2.486,4.178,3.219c1.56,0.733,3.259,1.1,5.099,1.1
			c3.279,0,5.818-1.045,7.617-3.139c1.799-2.092,2.699-4.523,2.699-7.296c0-3.439-3.346-7.783-10.036-13.034
			c-6.691-5.491-10.036-10.569-10.036-15.234c0-4.398,1.473-8.142,4.419-11.235c2.945-3.092,7.057-4.639,12.335-4.639
			c1.465,0,2.972,0.147,4.518,0.439c1.013,0.187,1.905,0.413,2.678,0.68l2.08,0.68c0.453,0.134,0.919,0.247,1.399,0.339
			c0.48,0.094,0.906,0.139,1.279,0.139c0.959,0,1.693-0.2,2.199-0.599c0.506-0.399,0.946-0.893,1.32-1.479h2.439l-3.319,16.394
			l-2.119-0.281l-0.28-2.679c-0.347-2.531-1.134-4.704-2.36-6.516c-1.919-2.852-4.718-4.28-8.396-4.28
			c-3.146,0-5.438,1.147-6.877,3.439c-0.959,1.519-1.439,3.158-1.439,4.918c0,1.866,0.492,3.518,1.476,4.958
			c0.558,0.798,1.397,1.665,2.514,2.599l7.063,5.797c2.5,2.054,4.629,4.393,6.384,7.018c1.756,2.625,2.634,5.618,2.634,8.976
			c0,4.319-1.699,8.217-5.099,11.695c-3.398,3.479-8.071,5.218-14.015,5.218c-1.494,0-2.993-0.138-4.498-0.414
			c-1.507-0.276-2.993-0.678-4.458-1.203l-2.08-0.748c-0.693-0.262-1.173-0.428-1.439-0.493c-0.268-0.066-0.573-0.099-0.92-0.099
			c-0.906,0-1.553,0.216-1.94,0.651c-0.386,0.434-0.819,1.19-1.299,2.268L141.127,58.735L141.127,58.735z"/>
		<path fill="#FFFFFF" d="M187.809,50.299c0.173-0.906,0.525-2.319,1.06-4.238l6.085-22.231h-4.167v-2.799
			c2.714-1.092,4.999-2.291,6.853-3.599c3.278-2.292,6.019-5.238,8.223-8.836h2.959l-3.249,11.875h5.878v3.359h-6.839l-5.283,18.992
			c-0.475,1.679-0.843,3.079-1.107,4.197c-0.454,1.92-0.68,3.24-0.68,3.96c0,0.507,0.153,0.839,0.459,1
			c0.307,0.159,0.567,0.239,0.78,0.239c0.773,0,1.768-0.666,2.981-1.999c1.213-1.333,2.327-2.851,3.341-4.557l1.799,1.159
			c-2.431,3.679-4.381,6.238-5.85,7.678c-2.485,2.399-5.116,3.599-7.894,3.599c-1.603,0-2.938-0.527-4.005-1.58
			c-1.067-1.053-1.601-2.391-1.601-4.017C187.549,51.939,187.635,51.205,187.809,50.299z"/>
		<path fill="#FFFFFF" d="M213.379,48.7c0.239-1.2,0.506-2.305,0.8-3.319l4.258-15.554c0.215-0.693,0.37-1.292,0.465-1.798
			c0.094-0.507,0.141-1.013,0.141-1.519c0-1.04-0.342-1.726-1.024-2.06c-0.682-0.333-1.862-0.525-3.542-0.579v-2.159
			c5.605-0.506,9.809-1,12.613-1.478c2.804-0.48,4.328-0.72,4.571-0.72l-3.716,12.516L224,44.623c-0.187,0.586-0.4,1.36-0.64,2.319
			c-0.373,1.439-0.559,2.506-0.559,3.198c0,0.667,0.166,1.16,0.499,1.479c0.333,0.32,0.8,0.479,1.399,0.479
			c1.296,0,3-1.272,5.113-3.818c2.113-2.546,4.088-5.937,5.929-10.176c1.192-2.745,2.255-5.544,3.188-8.396
			c0.617-1.893,1.543-4.971,2.777-9.237h9.677l-3.123,11.355c-0.125,0.428-0.678,2.447-1.655,6.057
			c-0.978,3.613-1.568,5.779-1.768,6.498c-0.4,1.414-0.747,2.726-1.04,3.939c-0.294,1.213-0.439,2.046-0.439,2.499
			c0,0.507,0.126,0.9,0.38,1.179c0.252,0.281,0.566,0.421,0.94,0.421c0.853,0,2.001-0.932,3.442-2.799
			c0.828-1.04,1.574-2.132,2.241-3.279l1.72,1.039c-1.581,2.959-3.563,5.485-5.947,7.577c-2.383,2.094-4.843,3.139-7.377,3.139
			c-2.234,0-3.787-0.612-4.659-1.838c-0.59-0.827-0.884-1.92-0.884-3.28c0-1.305,0.107-2.419,0.32-3.337
			c0.213-0.92,0.707-2.592,1.482-5.018l-0.197-0.079c-3.296,4.797-5.756,7.997-7.378,9.596c-2.668,2.665-5.402,3.999-8.201,3.999
			c-1.361,0-2.565-0.347-3.611-1.04c-1.742-1.092-2.611-2.945-2.611-5.557C213.019,50.845,213.139,49.899,213.379,48.7z"/>
		<path fill="#FFFFFF" d="M281.302,20.351c0.64,0.374,1.333,0.946,2.079,1.72l3.655-13.504c0.079-0.267,0.134-0.533,0.159-0.801
			c0.027-0.268,0.04-0.521,0.04-0.763c0-0.962-0.294-1.617-0.88-1.964c-0.586-0.347-1.413-0.521-2.479-0.521h-1.68V2.36l3.507-0.32
			c2.736-0.24,4.848-0.48,6.336-0.72c1.487-0.239,3.905-0.68,7.251-1.32l-9.075,33.146c-0.718,2.586-1.674,6.139-2.873,10.656
			c-1.197,4.518-1.794,7.003-1.794,7.456c0,0.399,0.1,0.694,0.299,0.88c0.2,0.187,0.446,0.281,0.741,0.281
			c0.611,0,1.458-0.659,2.537-1.98c1.079-1.32,2.018-2.618,2.817-3.898l1.799,1.32c-2.163,3.198-3.926,5.477-5.288,6.837
			c-2.377,2.399-4.687,3.599-6.931,3.599c-1.176,0-2.177-0.294-3.005-0.88c-1.309-0.88-1.962-2.373-1.962-4.478
			c0-0.346,0.073-0.953,0.22-1.82c0.147-0.866,0.354-1.952,0.62-3.258c-1.97,3.198-3.674,5.491-5.111,6.876
			c-2.502,2.426-5.271,3.639-8.305,3.639c-2.395,0-4.451-0.927-6.168-2.778c-1.717-1.853-2.575-4.632-2.575-8.337
			c0-5.837,2.425-11.901,7.275-18.193c4.956-6.423,9.926-9.635,14.91-9.635C278.916,19.432,280.21,19.74,281.302,20.351z
			 M266.334,51.079c0.625,0.893,1.471,1.339,2.536,1.339c3.22,0,6.348-3.799,9.383-11.396c2.555-6.318,3.832-10.956,3.832-13.914
			c0-1.039-0.134-1.88-0.399-2.518c-0.506-1.173-1.437-1.759-2.795-1.759c-3.035,0-6.121,3.385-9.263,10.156
			c-2.822,6.051-4.232,10.915-4.232,14.593C265.397,49.02,265.709,50.186,266.334,51.079z"/>
		<path fill="#FFFFFF" d="M304.66,28.06c4.904-5.751,10.289-8.628,16.153-8.628c2.532,0,4.631,0.624,6.297,1.877
			c1.665,1.25,2.499,3.02,2.499,5.309c0,3.459-1.946,6.732-5.837,9.819c-3.892,3.086-8.943,5.055-15.154,5.907
			c-0.16,0.827-0.281,1.599-0.36,2.319c-0.079,0.719-0.12,1.306-0.12,1.759c0,1.68,0.24,2.999,0.719,3.959
			c0.853,1.786,2.492,2.679,4.918,2.679c1.971,0,3.931-1.014,5.878-3.039c1.039-1.065,2.158-2.546,3.358-4.437l2.399,1.399
			c-2.053,3.439-3.985,5.958-5.797,7.556c-2.878,2.56-6.251,3.838-10.116,3.838c-2.878,0-5.593-1.044-8.137-3.135
			c-2.544-2.091-3.818-5.279-3.818-9.566C297.542,39.497,299.915,33.625,304.66,28.06z M321.653,23.089
			c-0.346-0.653-0.974-0.978-1.88-0.978c-1.919,0-3.805,1.543-5.657,4.628c-1.853,3.085-3.498,7.408-4.938,12.966
			c4.718-1.064,8.062-3.111,10.036-6.143c1.971-3.032,2.959-5.732,2.959-8.098C322.173,24.532,321.999,23.74,321.653,23.089z"/>
		<path fill="#FFFFFF" d="M333.767,57.217l7.158-26.149c0.294-1.065,0.507-1.905,0.641-2.518c0.265-1.145,0.399-1.945,0.399-2.399
			c0-0.986-0.307-1.6-0.92-1.838c-0.612-0.24-1.798-0.386-3.558-0.439v-2.159c3.391-0.212,6.028-0.453,7.91-0.719
			s4.691-0.759,8.428-1.479l-4.853,15.155l0.215,0.119c-0.134,0.134,0.67-1.086,2.414-3.657c1.743-2.572,3.405-4.658,4.988-6.258
			c1.556-1.625,3.184-2.924,4.887-3.898c1.701-0.974,3.492-1.46,5.37-1.46c1.744,0,3.225,0.494,4.445,1.479
			c1.221,0.986,1.831,2.599,1.831,4.838c0,2.079-1.201,6.664-3.6,13.755c-2.431,7.063-3.647,10.85-3.647,11.355
			c0,0.48,0.147,0.846,0.439,1.1c0.294,0.253,0.586,0.381,0.88,0.381c0.719,0,1.786-0.906,3.198-2.72
			c0.746-0.959,1.56-2.145,2.439-3.558l1.799,1.16c-2.001,3.279-3.696,5.638-5.092,7.077c-2.422,2.478-4.986,3.718-7.695,3.718
			c-1.447,0-2.747-0.428-3.899-1.279c-1.152-0.853-1.727-2.199-1.727-4.039c0-1.173,0.28-2.878,0.839-5.117
			c0.56-2.24,1.201-4.545,1.923-6.918l3.74-12.235c0.079-0.293,0.146-0.546,0.2-0.759c0.053-0.212,0.079-0.426,0.079-0.64
			c0-0.612-0.204-1.039-0.616-1.279s-0.855-0.36-1.332-0.36c-1.668,0-3.52,1.299-5.558,3.899c-2.038,2.599-3.705,5.191-5.003,7.776
			c-1.403,2.799-2.573,5.638-3.508,8.517c-0.937,2.878-2.056,6.732-3.356,11.555h-9.858V57.217z"/>
		<path fill="#FFFFFF" d="M378.929,50.299c0.173-0.906,0.525-2.319,1.061-4.238l6.085-22.231h-4.166v-2.799
			c2.713-1.092,4.999-2.291,6.852-3.599c3.279-2.292,6.019-5.238,8.224-8.836h2.959l-3.249,11.875h5.878v3.359h-6.839l-5.283,18.992
			c-0.475,1.679-0.843,3.079-1.107,4.197c-0.454,1.92-0.68,3.24-0.68,3.96c0,0.507,0.153,0.839,0.46,1
			c0.306,0.159,0.567,0.239,0.78,0.239c0.773,0,1.767-0.666,2.98-1.999c1.213-1.333,2.328-2.851,3.341-4.557l1.798,1.159
			c-2.43,3.679-4.381,6.238-5.849,7.678c-2.485,2.399-5.116,3.599-7.894,3.599c-1.603,0-2.938-0.527-4.007-1.58
			c-1.068-1.053-1.601-2.391-1.601-4.017C378.67,51.939,378.756,51.205,378.929,50.299z"/>
	</g>
	<g>
		<path fill="#FFFFFF" d="M417.983,55.327c1.913-0.234,3.327-0.703,4.246-1.404c0.917-0.703,1.676-2.148,2.28-4.335l9.887-36.116
			c0.202-0.741,0.37-1.387,0.502-1.938c0.235-1.126,0.353-2.004,0.353-2.633c0-1.285-0.367-2.097-1.101-2.437
			c-0.734-0.34-2.319-0.615-4.756-0.825V3.556h22.135c4.944,0,8.778,0.486,11.5,1.455c4.997,1.782,7.496,5.19,7.496,10.222
			c0,1.677-0.42,3.466-1.259,5.367c-0.84,1.901-2.243,3.625-4.209,5.17c-1.39,1.101-3.016,1.991-4.878,2.674
			c-1.101,0.393-2.818,0.865-5.152,1.415c0.264,0.827,0.441,1.345,0.529,1.552l6.2,18.179c0.839,2.421,1.736,3.964,2.694,4.627
			c0.956,0.663,2.417,1.035,4.383,1.112v2.083h-16.196l-8.688-26.613h-2.257l-4.766,16.746l-0.668,2.778
			c-0.052,0.209-0.092,0.436-0.118,0.685c-0.026,0.248-0.039,0.503-0.039,0.763c0,1.435,0.347,2.336,1.042,2.7
			c0.695,0.364,2.299,0.651,4.816,0.86v2.083h-23.976v-2.083H417.983z M448.854,27.613c2.496-0.524,4.413-1.545,5.75-3.066
			c0.916-1.047,1.774-2.521,2.574-4.423c0.799-1.899,1.199-3.951,1.199-6.152c0-2.254-0.558-4.122-1.674-5.602
			c-1.117-1.48-3.011-2.22-5.685-2.22c-1.116,0-1.921,0.243-2.414,0.727c-0.493,0.486-0.921,1.435-1.283,2.85l-4.864,18.437
			C445.317,28.111,447.45,27.927,448.854,27.613z"/>
		<path fill="#FFFFFF" d="M483.143,28.744c4.821-5.655,10.116-8.482,15.882-8.482c2.49,0,4.553,0.614,6.192,1.845
			c1.637,1.229,2.457,2.969,2.457,5.219c0,3.401-1.913,6.618-5.739,9.654c-3.827,3.034-8.793,4.97-14.899,5.808
			c-0.157,0.813-0.276,1.572-0.354,2.28c-0.078,0.707-0.118,1.285-0.118,1.729c0,1.651,0.236,2.949,0.707,3.892
			c0.839,1.756,2.45,2.634,4.835,2.634c1.938,0,3.865-0.997,5.779-2.988c1.021-1.047,2.122-2.503,3.302-4.363l2.358,1.375
			c-2.018,3.381-3.918,5.858-5.7,7.429c-2.83,2.517-6.146,3.773-9.946,3.773c-2.83,0-5.498-1.027-8-3.082
			c-2.502-2.056-3.754-5.19-3.754-9.405C476.145,39.989,478.478,34.216,483.143,28.744z M499.849,23.857
			c-0.34-0.642-0.957-0.962-1.848-0.962c-1.887,0-3.741,1.517-5.562,4.55c-1.821,3.033-3.44,7.284-4.855,12.748
			c4.639-1.046,7.926-3.059,9.868-6.04c1.938-2.981,2.909-5.635,2.909-7.962C500.362,25.276,500.19,24.497,499.849,23.857z"/>
		<path fill="#FFFFFF" d="M503.309,71.877c1.835-0.079,3.112-0.374,3.833-0.884c0.721-0.512,1.369-1.894,1.945-4.148l9.619-35.144
			c0.132-0.471,0.334-1.304,0.61-2.496c0.275-1.191,0.413-1.945,0.413-2.26c0-0.969-0.34-1.598-1.023-1.887
			c-0.681-0.289-1.796-0.432-3.341-0.432v-2.123l3.762-0.393c0.961-0.105,2.539-0.321,4.729-0.648
			c2.19-0.327,4.363-0.701,6.516-1.121l-2.656,8.216l0.156,0.157c1.783-2.358,3.355-4.114,4.719-5.269
			c2.464-2.07,5.019-3.105,7.667-3.105c2.49,0,4.568,0.825,6.232,2.476c1.664,1.651,2.497,4.181,2.497,7.587
			c0,6.474-2.334,12.764-6.998,18.87c-4.746,6.185-9.725,9.277-14.94,9.277c-1.232,0-2.202-0.13-2.91-0.393
			c-0.707-0.262-1.69-0.747-2.949-1.453l-1.412,5.307c-0.446,1.598-0.819,3.059-1.12,4.383c-0.302,1.323-0.452,2.274-0.452,2.85
			c0,1.074,0.353,1.756,1.061,2.044c0.707,0.289,2.096,0.484,4.167,0.59v2.122h-20.126V71.877z M523.06,54.836
			c0.641,0.537,1.471,0.805,2.491,0.805c3.267,0,6.393-3.511,9.373-10.535c2.563-6.001,3.844-10.837,3.844-14.506
			c0-1.18-0.13-2.096-0.391-2.751c-0.471-1.205-1.373-1.809-2.706-1.809c-1.438,0-2.967,0.748-4.588,2.242
			c-1.621,1.494-2.967,3.695-4.039,6.604c-0.836,2.254-1.871,5.529-3.098,9.827c-1.23,4.3-1.845,6.893-1.845,7.783
			C522.099,53.519,522.42,54.3,523.06,54.836z"/>
		<path fill="#FFFFFF" d="M582.403,22.188c3.773,2.15,5.661,5.805,5.661,10.968c0,5.713-2.175,11.256-6.526,16.628
			c-4.744,5.845-10.169,8.766-16.275,8.766c-3.119,0-6.074-0.969-8.864-2.909c-2.79-1.938-4.187-5.214-4.187-9.827
			c0-5.739,2.162-11.295,6.487-16.668c4.743-5.871,10.207-8.805,16.392-8.805C577.817,20.341,580.254,20.957,582.403,22.188z
			 M562.315,53.794c0.655,1.494,1.888,2.242,3.695,2.242c3.355,0,6.368-3.854,9.042-11.558c2.227-6.473,3.341-12.068,3.341-16.785
			c0-1.258-0.157-2.241-0.472-2.949c-0.602-1.31-1.729-1.965-3.381-1.965c-3.852,0-7.089,4.088-9.709,12.264
			c-2.018,6.212-3.027,11.374-3.027,15.488C561.804,51.921,561.974,53.009,562.315,53.794z"/>
		<path fill="#FFFFFF" d="M591.052,57.411c2.214-7.679,4.022-14.283,5.425-19.812c1.625-5.949,2.436-9.487,2.436-10.614
			c0-0.997-0.328-1.637-0.983-1.926c-0.655-0.289-1.782-0.432-3.38-0.432v-2.123c3.429-0.209,6.324-0.485,8.682-0.825
			c1.528-0.21,4.127-0.655,7.799-1.337l-4.477,14.27l0.353,0.079c2.304-4.456,4.15-7.613,5.539-9.474
			c2.434-3.249,4.779-4.875,7.03-4.875c1.571,0,2.729,0.524,3.476,1.573c0.745,1.047,1.12,2.214,1.12,3.498
			c0,1.547-0.413,2.936-1.239,4.167c-0.825,1.231-1.972,1.848-3.439,1.848c-0.656,0-1.265-0.132-1.829-0.394
			c-0.563-0.261-1.042-0.655-1.434-1.18l-0.747-0.943c-0.132-0.157-0.27-0.289-0.414-0.393c-0.143-0.105-0.334-0.157-0.569-0.157
			c-1.021,0-2.358,1.389-4.01,4.167s-3.04,5.608-4.167,8.49c-0.786,1.991-1.757,4.823-2.91,8.491
			c-1.154,3.67-2.005,6.304-2.556,7.902h-9.708V57.411z"/>
		<path fill="#FFFFFF" d="M623.229,50.61c0.17-0.891,0.517-2.28,1.043-4.167l5.983-21.857h-4.096v-2.752
			c2.667-1.074,4.914-2.252,6.737-3.538c3.224-2.254,5.918-5.15,8.086-8.688h2.909l-3.195,11.675h5.779v3.303h-6.724l-5.194,18.673
			c-0.467,1.65-0.829,3.027-1.089,4.126c-0.446,1.888-0.668,3.185-0.668,3.893c0,0.498,0.151,0.825,0.452,0.983
			c0.301,0.156,0.557,0.235,0.767,0.235c0.76,0,1.737-0.655,2.93-1.966c1.193-1.31,2.289-2.803,3.284-4.48L642,47.189
			c-2.389,3.617-4.307,6.133-5.751,7.549c-2.443,2.358-5.03,3.538-7.762,3.538c-1.576,0-2.889-0.518-3.939-1.553
			c-1.05-1.035-1.574-2.351-1.574-3.95C622.973,52.221,623.058,51.501,623.229,50.61z"/>
	</g>
</g>
</svg>
